<svg width="236" height="239" viewBox="0 0 236 239" fill="none" xmlns="http://www.w3.org/2000/svg">
<g clip-path="url(#clip0_169_4035)">
<path d="M219.778 61.0297C218.495 59.0382 217.227 57.0466 215.914 55.0846C192.437 19.5024 159.521 0.51631 117.388 -1.64239e-05C83.4841 -0.413077 54.3435 12.6426 31.2641 38.0016C6.29704 65.4111 -3.46563 98.0429 1.09126 135.027C4.26192 160.74 15.6468 182.514 32.7093 201.456C36.7943 206.973 41.7936 211.635 47.2354 215.603C76.5086 236.935 108.982 243.898 144.066 235.622C177.822 227.656 203.925 208.109 220.309 177.174C240.66 138.729 241.987 99.6362 219.778 61.0297ZM128.802 37.4705C134.038 41.0848 137.68 46.2776 142.163 50.6147C164.166 77.6407 165.14 109.653 150.864 138.951C150.053 140.618 148.8 142.049 147.812 143.627C146.322 146.002 144.685 146.401 141.957 145.206C132.637 141.178 123.11 138.833 113.318 143.834C112.315 144.335 111.371 144.247 110.442 143.716C102.464 139.157 94.9132 141.414 87.4511 145.191C84.2362 146.356 84.2214 143.273 83.5873 141.798C80.4166 134.392 78.5732 126.515 78.0276 118.504C75.6238 82.9662 91.4476 56.8844 119.526 37.2787C122.726 35.0364 125.587 35.2577 128.802 37.4705ZM168.266 213.951C165.921 215.249 163.444 216.326 161.143 217.683C154.05 221.843 146.927 221.415 139.745 218.067C121.856 213.848 105.207 206.648 89.5747 196.927C86.0206 194.714 82.3928 192.619 78.7944 190.465C68.7073 184.446 58.34 185.45 47.8695 189.138C42.3245 192.157 37.7775 191.468 34.2283 187.072C-11.7241 130.173 11.0604 43.6517 78.8682 17.5698C79.6203 17.2748 80.4609 17.1863 81.2572 16.9945C93.8661 11.669 107.065 10.179 122.122 10.474C112.89 16.1094 104.941 20.9776 97.7299 26.9817C78.8534 42.7223 65.6989 62.1361 62.5872 87.0083C59.2986 113.267 63.2656 137.992 82.0831 158.32C84.3247 160.74 85.6666 160.887 87.9967 158.365C90.9462 155.178 94.4413 152.464 99.6913 152.124C94.8984 156.609 90.312 160.518 86.1828 164.87C80.1364 171.243 80.4756 175.816 87.2004 181.481C96.2109 189.064 111.135 193.932 123.715 185.892C125.292 184.874 126.723 184.594 128.419 185.184C145.894 191.321 164.004 193.593 182.35 194.522H193.661C185.845 202.577 177.468 208.817 168.266 213.951Z" fill="#003DDB"/>
<path d="M193.661 194.522C185.845 202.577 177.468 208.817 168.266 213.951C165.921 215.249 163.444 216.326 161.143 217.683C154.05 221.843 146.927 221.415 139.745 218.067C121.856 213.848 105.207 206.648 89.5747 196.927C86.0206 194.714 82.3928 192.619 78.7945 190.465C68.7074 184.446 58.3401 185.45 47.8695 189.138C42.3246 192.157 37.7775 191.468 34.2283 187.072C-11.7241 130.173 11.0604 43.6517 78.8682 17.5698C79.6203 17.2748 80.4609 17.1863 81.2573 16.9945C93.8661 11.669 107.065 10.179 122.122 10.474C112.89 16.1094 104.941 20.9776 97.7299 26.9817C78.8535 42.7223 65.6989 62.1362 62.5873 87.0083C59.2986 113.267 63.2656 137.992 82.0831 158.32C84.3247 160.74 85.6667 160.887 87.9967 158.365C90.9462 155.178 94.4413 152.464 99.6913 152.124C94.8985 156.609 90.3121 160.518 86.1828 164.87C80.1365 171.243 80.4757 175.816 87.2004 181.481C96.211 189.064 111.135 193.932 123.715 185.892C125.292 184.874 126.723 184.594 128.419 185.184C145.894 191.321 164.004 193.593 182.35 194.522H193.661Z" fill="white"/>
</g>
<defs>
<clipPath id="clip0_169_4035">
<rect width="236" height="239" fill="white"/>
</clipPath>
</defs>
</svg>
