<svg width="33" height="33" viewBox="0 0 33 33" fill="none" xmlns="http://www.w3.org/2000/svg">
<rect x="0.142212" y="0.017334" width="32" height="32" rx="16" fill="white"/>
<path d="M20.8497 25.3099C20.9426 25.4028 21.0163 25.5131 21.0666 25.6345C21.1169 25.7559 21.1428 25.886 21.1428 26.0174C21.1428 26.1488 21.1169 26.2789 21.0666 26.4003C21.0163 26.5217 20.9426 26.632 20.8497 26.7249C20.7568 26.8178 20.6465 26.8915 20.5251 26.9418C20.4037 26.9921 20.2736 27.018 20.1422 27.018C20.0108 27.018 19.8807 26.9921 19.7593 26.9418C19.6379 26.8915 19.5276 26.8178 19.4347 26.7249L9.4347 16.7249C9.34173 16.632 9.26797 16.5217 9.21765 16.4003C9.16732 16.2789 9.14142 16.1488 9.14142 16.0174C9.14142 15.886 9.16732 15.7559 9.21765 15.6345C9.26797 15.5131 9.34173 15.4028 9.4347 15.3099L19.4347 5.3099C19.6223 5.12226 19.8768 5.01685 20.1422 5.01685C20.4076 5.01685 20.6621 5.12226 20.8497 5.3099C21.0373 5.49754 21.1428 5.75204 21.1428 6.0174C21.1428 6.28277 21.0373 6.53726 20.8497 6.7249L11.556 16.0174L20.8497 25.3099Z" fill="#003DDB"/>
<path d="M20.8497 25.3099C20.9426 25.4028 21.0163 25.5131 21.0666 25.6345C21.1169 25.7559 21.1428 25.886 21.1428 26.0174C21.1428 26.1488 21.1169 26.2789 21.0666 26.4003C21.0163 26.5217 20.9426 26.632 20.8497 26.7249C20.7568 26.8178 20.6465 26.8915 20.5251 26.9418C20.4037 26.9921 20.2736 27.018 20.1422 27.018C20.0108 27.018 19.8807 26.9921 19.7593 26.9418C19.6379 26.8915 19.5276 26.8178 19.4347 26.7249L9.4347 16.7249C9.34173 16.632 9.26797 16.5217 9.21765 16.4003C9.16732 16.2789 9.14142 16.1488 9.14142 16.0174C9.14142 15.886 9.16732 15.7559 9.21765 15.6345C9.26797 15.5131 9.34173 15.4028 9.4347 15.3099L19.4347 5.3099C19.6223 5.12226 19.8768 5.01685 20.1422 5.01685C20.4076 5.01685 20.6621 5.12226 20.8497 5.3099C21.0373 5.49754 21.1428 5.75204 21.1428 6.0174C21.1428 6.28277 21.0373 6.53726 20.8497 6.7249L11.556 16.0174L20.8497 25.3099Z" stroke="#003DDB"/>
</svg>
