<svg width="34" height="35" viewBox="0 0 34 35" fill="none" xmlns="http://www.w3.org/2000/svg">
<rect y="0.5" width="34" height="34" rx="16" fill="#003DDB"/>
<path d="M17 14.875C17.5192 14.875 18.0267 15.029 18.4584 15.3174C18.8901 15.6058 19.2265 16.0158 19.4252 16.4955C19.6239 16.9751 19.6759 17.5029 19.5746 18.0121C19.4733 18.5213 19.2233 18.989 18.8562 19.3562C18.489 19.7233 18.0213 19.9733 17.5121 20.0746C17.0029 20.1758 16.4751 20.1239 15.9955 19.9252C15.5158 19.7265 15.1058 19.39 14.8174 18.9584C14.529 18.5267 14.375 18.0192 14.375 17.5C14.375 16.8038 14.6516 16.1361 15.1438 15.6438C15.6361 15.1516 16.3038 14.875 17 14.875ZM12.125 17.5C12.125 16.9808 11.971 16.4733 11.6826 16.0416C11.3942 15.6099 10.9842 15.2735 10.5045 15.0748C10.0249 14.8761 9.49709 14.8242 8.98789 14.9254C8.47869 15.0267 8.01096 15.2767 7.64385 15.6438C7.27673 16.011 7.02673 16.4787 6.92544 16.9879C6.82415 17.4971 6.87614 18.0249 7.07482 18.5045C7.2735 18.9842 7.60995 19.3942 8.04163 19.6826C8.47331 19.971 8.98083 20.125 9.5 20.125C10.1962 20.125 10.8639 19.8484 11.3562 19.3562C11.8484 18.8639 12.125 18.1962 12.125 17.5ZM21.875 17.5C21.875 18.0192 22.029 18.5267 22.3174 18.9584C22.6058 19.39 23.0158 19.7265 23.4955 19.9252C23.9751 20.1239 24.5029 20.1758 25.0121 20.0746C25.5213 19.9733 25.989 19.7233 26.3562 19.3562C26.7233 18.989 26.9733 18.5213 27.0746 18.0121C27.1759 17.5029 27.1239 16.9751 26.9252 16.4955C26.7265 16.0158 26.3901 15.6058 25.9584 15.3174C25.5267 15.029 25.0192 14.875 24.5 14.875C23.8038 14.875 23.1361 15.1516 22.6438 15.6438C22.1516 16.1361 21.875 16.8038 21.875 17.5Z" fill="white"/>
</svg>
